<svg width="52" height="52" viewBox="0 0 52 52" fill="none" xmlns="http://www.w3.org/2000/svg">
<path d="M26.0023 4.4603C31.4717 10.0222 39.0593 7.89518 34.3781 14.7606C32.6343 17.3103 25.5707 15.3683 21.4004 20.3973C21.8496 22.9338 22.0037 24.9067 23.2544 26.2322C23.7872 18.6754 33.6251 22.3129 37.5136 17.4424C38.9888 15.6413 40.5081 12.4398 39.8079 9.82401C38.315 4.3458 29.2786 4.27534 27.9707 0.00375214C19.8195 0.00375214 28.2174 -0.256066 18.5776 4.27975C15.3762 5.78581 12.1747 7.37555 12.0073 11.0086C13.3769 11.1451 14.8301 11.6604 16.411 12.5807C14.8125 8.5117 21.7219 8.81116 25.9979 4.4603H26.0023Z" fill="#313133"/>
<path d="M47.7254 18.5786C46.2149 15.3727 44.6252 12.1756 40.9965 12.0083C40.86 13.3778 40.3404 14.8398 39.4244 16.412C43.5023 14.8046 43.1852 21.714 47.5449 25.9988C42.0887 31.3581 44.1144 39.0734 37.2446 34.3747C34.7169 32.644 36.6457 25.5717 31.6079 21.3969C29.3488 21.8153 27.1645 21.943 25.7729 23.2509C33.4442 23.7794 29.5777 33.5291 34.5627 37.5101C35.7121 38.4525 38.0549 39.7208 39.9529 39.9497C47.4039 40.9053 47.3159 29.3941 51.997 27.9717C51.997 19.7852 52.2612 28.2271 47.721 18.5786H47.7254Z" fill="#313133"/>
<path d="M26.002 47.5417C20.6427 42.0943 12.9318 44.1156 17.6261 37.2414C19.3744 34.6873 26.4335 36.6425 30.6038 31.6091C30.1591 29.1034 29.9917 27.0777 28.7499 25.7742C28.6662 26.972 28.1466 28.1522 27.3495 29.0726C24.3814 32.5074 17.7935 30.4201 14.4863 34.5596C13.011 36.3607 11.4918 39.5622 12.192 42.178C13.6848 47.6606 22.7256 47.7266 24.0291 51.9982C32.0438 51.9982 23.9807 52.1612 33.4222 47.7222C36.6281 46.2118 39.8252 44.6264 39.9925 40.9934C38.623 40.8569 37.1653 40.3416 35.5888 39.4213C37.1918 43.5035 30.3088 43.1644 26.002 47.5417Z" fill="#313133"/>
<path d="M4.46357 26.0033C10.0254 20.5339 7.89846 12.9463 14.7638 17.6274C17.296 19.3581 15.3848 26.448 20.3962 30.6051C23.0472 30.1383 24.9188 29.993 26.2311 28.7512C25.0333 28.6675 23.8575 28.1523 22.9327 27.3508C19.5154 24.4135 21.5808 17.7948 17.4413 14.4876C15.649 13.0212 12.4431 11.4975 9.82728 12.1977C4.34467 13.6905 4.27862 22.7269 0.00262151 24.0304C0.00262151 32.1949 -0.252793 23.8058 4.27862 33.4235C5.78909 36.6338 7.37882 39.8265 11.0075 39.9938C11.144 38.6243 11.668 37.1666 12.5796 35.5901C8.52378 37.1799 8.7836 30.2528 4.45917 26.0033H4.46357Z" fill="#313133"/>
</svg>
