<svg width="156" height="80" viewBox="0 0 156 80" fill="none" xmlns="http://www.w3.org/2000/svg">
<g clip-path="url(#clip0_2008_239)">
<path d="M40.0607 7.17707C48.4384 15.6965 60.0607 12.4385 52.8904 22.9545C50.2192 26.86 39.3996 23.8853 33.0118 31.5885C33.6998 35.4739 33.9359 38.4958 35.8516 40.5261C36.6678 28.9511 51.7369 34.5228 57.6931 27.0624C59.9528 24.3035 62.2799 19.3997 61.2074 15.3929C58.9207 7.00169 45.0792 6.89376 43.0759 0.350762C30.5902 0.350762 43.4536 -0.0472144 28.688 6.90051C23.7841 9.20742 18.8803 11.6425 18.6239 17.2074C20.7217 17.4165 22.9477 18.2057 25.3693 19.6155C22.9207 13.3828 33.5042 13.8415 40.0539 7.17707H40.0607Z" fill="#CD7F32"/>
<path d="M73.3356 28.8027C71.0219 23.8921 68.5868 18.9949 63.0286 18.7386C62.8195 20.8364 62.0236 23.0759 60.6206 25.484C66.8668 23.0219 66.3811 33.6054 73.059 40.1686C64.7015 48.3777 67.8044 60.1956 57.2816 52.9983C53.4098 50.3474 56.3642 39.5143 48.6475 33.1197C45.1872 33.7605 41.8415 33.9562 39.7099 35.9595C51.4604 36.769 45.5379 51.7032 53.1737 57.801C54.9342 59.2445 58.5227 61.1872 61.43 61.5379C72.8432 63.0017 72.7082 45.3693 79.8786 43.1906C79.8786 30.6509 80.2833 43.5818 73.3288 28.8027H73.3356Z" fill="#CD7F32"/>
<path d="M40.0607 73.1669C31.8516 64.8229 20.0404 67.9191 27.231 57.3895C29.9089 53.4772 40.7217 56.4722 47.1096 48.7622C46.4283 44.9241 46.172 41.8212 44.2698 39.8246C44.1416 41.6594 43.3457 43.4671 42.1248 44.8769C37.5784 50.1383 27.4873 46.941 22.4216 53.2816C20.1619 56.0405 17.8347 60.9443 18.9072 64.9511C21.1939 73.3491 35.0421 73.4502 37.0388 79.9932C49.3153 79.9932 36.9646 80.2428 51.4266 73.4435C56.3372 71.1298 61.2344 68.7015 61.4907 63.1366C59.3929 62.9275 57.1602 62.1383 54.7453 60.7285C57.2006 66.9814 46.6576 66.4621 40.0607 73.1669Z" fill="#CD7F32"/>
<path d="M7.06912 40.1754C15.5885 31.7976 12.3305 20.1754 22.8465 27.3457C26.7251 29.9966 23.7976 40.8567 31.4738 47.2243C35.5346 46.5093 38.4013 46.2867 40.4115 44.3845C38.5767 44.2563 36.7757 43.4671 35.3592 42.2395C30.1248 37.7403 33.2883 27.602 26.9477 22.5363C24.2023 20.2901 19.2917 17.9562 15.285 19.0287C6.887 21.3153 6.78582 35.1568 0.236071 37.1535C0.236071 49.6594 -0.15516 36.8094 6.78582 51.5413C9.09948 56.4587 11.5346 61.3491 17.0927 61.6054C17.3018 59.5076 18.1045 57.2749 19.5008 54.86C13.2883 57.2951 13.6863 46.6847 7.06238 40.1754H7.06912Z" fill="#CD7F32"/>
<path d="M94.0641 10.6914H91.4266V5.53793H101.862V10.6914H99.2243V39.0691H94.0708V10.6914H94.0641Z" fill="#008799"/>
<path d="M109.781 0C112.843 1.63238 115.899 2.38786 118.961 2.34739L118.88 4.48567C115.865 4.52614 112.803 3.77066 109.788 2.13828C106.772 3.77066 103.71 4.52614 100.695 4.48567L100.607 2.34739C103.669 2.38786 106.725 1.63238 109.788 0L109.781 0ZM110.867 39.0624V35.4604H110.03C110.03 37.5582 109.99 39.0624 108.897 39.0624H107.804C106.044 39.0624 103.568 36.8836 103.568 32.4789V24.6813C103.568 20.2766 106.044 18.0978 107.804 18.0978H110.867V17.0523C110.867 12.0202 110.995 11.1029 109.774 11.1029C108.553 11.1029 108.681 11.6492 108.681 16.6341L103.528 17.3491V12.1079C103.528 7.7032 106.003 5.52445 107.764 5.52445H111.791C113.551 5.52445 116.027 7.7032 116.027 12.1079V39.0624H110.874H110.867ZM109.862 33.4907H110.867V25.4435C110.867 24.0202 110.617 23.683 109.862 23.683C108.938 23.683 108.728 24.1889 108.728 26.5767V30.6037C108.728 32.9916 108.938 33.4975 109.862 33.4975V33.4907Z" fill="#008799"/>
<path d="M117.7 5.53119H125.457C126.462 5.53119 126.59 7.04215 126.59 9.13321H127.427V5.53119H133.214C134.975 5.53119 137.45 7.70994 137.45 12.1147V39.0691H132.297V17.059C132.297 11.9865 132.425 11.1096 131.164 11.1096H130.159V39.0691H125.005V13.9966C125.005 11.6088 124.836 11.1029 123.872 11.1029H122.867V39.0624H117.713V5.53119H117.7Z" fill="#008799"/>
<path d="M143.312 5.53119H148.465V14.9612C148.465 20.0337 148.256 20.9106 149.47 20.9106C150.685 20.9106 150.604 20.027 150.604 14.9612V5.53119H155.757V19.9056C155.757 23.8448 153.788 25.9831 152.108 26.4013V39.0624H146.954V26.4486C145.322 26.1113 143.305 23.9325 143.305 19.9123V5.53119H143.312Z" fill="#008799"/>
<path d="M103.191 41.8347C105.174 41.8347 107.966 44.2901 107.966 49.2546V72.2294C107.966 77.1939 105.18 79.6493 103.191 79.6493H93.9224V41.8347H103.191ZM100.877 73.3693C102.293 73.3693 102.152 72.3778 102.152 66.6577V54.8398C102.152 49.1197 102.293 48.1282 100.877 48.1282H99.7437V73.3693H100.877Z" fill="#008799"/>
<path d="M109.862 41.8347H115.676V66.6509C115.676 72.371 115.44 73.3626 116.809 73.3626C118.179 73.3626 118.084 72.371 118.084 66.6509V41.8347H123.899V72.2294C123.899 77.1939 121.113 79.6493 119.123 79.6493H114.489C112.553 79.6493 109.855 77.1939 109.855 72.2294V41.8347H109.862Z" fill="#008799"/>
<path d="M133.828 41.8347H135.056C137.039 41.8347 139.831 44.2901 139.831 49.2546V79.6493H134.017V54.8331C134.017 49.113 134.159 48.1214 132.742 48.1214H131.609V79.6493H125.794V41.8347H133.828Z" fill="#008799"/>
<path d="M141.72 72.2294V49.2546C141.72 44.2901 144.364 41.8347 146.354 41.8347H151.035C152.971 41.8347 155.764 44.2901 155.764 49.2546V52.0405H149.949C149.949 48.7825 149.855 48.0675 148.675 48.0675C147.258 48.0675 147.541 49.1535 147.541 54.8263V66.6442C147.541 72.317 147.258 73.403 148.675 73.403C149.949 73.403 149.949 72.4115 149.949 67.683V65.8415C149.949 64.425 152.357 64.5666 154.017 64.5666V63.6223H148.769L149.572 58.5632H155.764V72.2226C155.764 77.1872 152.978 79.6425 151.035 79.6425H146.354C144.371 79.6425 141.72 77.1872 141.72 72.2226V72.2294Z" fill="#008799"/>
</g>
<defs>
<clipPath id="clip0_2008_239">
<rect width="155.528" height="80" fill="white" transform="translate(0.236084)"/>
</clipPath>
</defs>
</svg>
