<svg width="24" height="24" viewBox="0 0 24 24" fill="none" xmlns="http://www.w3.org/2000/svg">
<path fill-rule="evenodd" clip-rule="evenodd" d="M21.8382 5.15941C22.1789 5.51057 22.4208 5.94541 22.5396 6.42C22.8568 8.1787 23.0108 9.96295 22.9996 11.75C23.0059 13.5103 22.852 15.2676 22.5396 17C22.4208 17.4746 22.1789 17.9094 21.8382 18.2606C21.4976 18.6118 21.0703 18.8668 20.5996 19C18.8796 19.46 11.9996 19.46 11.9996 19.46C11.9996 19.46 5.1196 19.46 3.3996 19C2.93842 18.8738 2.51758 18.6308 2.17774 18.2945C1.8379 17.9581 1.59055 17.5398 1.4596 17.08C1.14236 15.3213 0.988374 13.537 0.999595 11.75C0.990831 9.97631 1.14481 8.20556 1.4596 6.46C1.57838 5.98541 1.82031 5.55057 2.16094 5.19941C2.50157 4.84824 2.92884 4.59318 3.3996 4.46C5.1196 4 11.9996 4 11.9996 4C11.9996 4 18.8796 4 20.5996 4.42C21.0703 4.55318 21.4976 4.80824 21.8382 5.15941ZM15.5 11.75L9.75 15.02V8.48001L15.5 11.75Z" fill="#3C434A"/>
</svg>
