<svg width="8" height="13" viewBox="0 0 8 13" fill="none" xmlns="http://www.w3.org/2000/svg">
<path d="M0.66863 0.691807L0.221885 1.08488C0.0823672 1.20859 0.00550549 1.37318 0.0055055 1.54908C0.0055055 1.72489 0.0823672 1.88967 0.221885 2.01338L5.28308 6.49732L0.21627 10.9864C0.0767516 11.1099 -5.35586e-08 11.2747 -4.58739e-08 11.4505C-3.81891e-08 11.6263 0.0767516 11.7912 0.21627 11.9148L0.660262 12.308C0.948988 12.564 1.4193 12.564 1.70802 12.308L7.76237 6.96317C7.90177 6.83966 8 6.67507 8 6.49771L8 6.49566C8 6.31975 7.90166 6.15517 7.76237 6.03165L1.72443 0.691807C1.58502 0.568098 1.39364 0.500194 1.19521 0.5C0.996668 0.5 0.807928 0.568098 0.66863 0.691807Z" fill="#313133"/>
</svg>
