<svg width="119" height="119" viewBox="0 0 119 119" fill="none" xmlns="http://www.w3.org/2000/svg">
<path d="M58.2602 10.89C58.7002 10.48 59.3802 10.48 59.8202 10.89C72.1602 22.56 88.4702 18.25 78.0602 33.52C74.1502 39.23 58.4502 35.01 48.9402 45.91C48.7202 46.17 48.6302 46.52 48.6802 46.86C49.3902 50.99 49.8002 54.43 51.1202 57.12C51.5702 58.04 52.9602 57.88 53.2002 56.88C56.5102 43.3 76.8502 50.04 85.1802 39.61C88.5302 35.52 91.9802 28.25 90.3902 22.31C87.0902 10.18 67.4902 9.73 63.7702 0.72C63.6002 0.3 63.2102 0.00999987 62.7502 0.00999987C45.5302 -1.26194e-07 63.7602 -0.429999 42.1802 9.72C35.2402 12.98 28.3102 16.42 27.3602 23.89C27.2802 24.5 27.7102 25.04 28.3102 25.13C30.4702 25.47 32.7302 26.23 35.1102 27.4C35.8702 27.78 36.7902 27.22 36.7402 26.37C36.3202 19.56 49.3702 19.16 58.2502 10.88L58.2602 10.89Z" fill="#CD7F32"/>
<path d="M108.37 42.19C105.1 35.25 101.66 28.32 94.2001 27.37C93.6001 27.29 93.0501 27.72 92.9601 28.32C92.6201 30.48 91.8601 32.74 90.6801 35.12C90.3001 35.89 90.8601 36.8 91.7101 36.75C98.5201 36.32 98.9002 49.38 107.19 58.26C107.6 58.7 107.6 59.38 107.19 59.82C95.7502 71.94 99.8301 88.51 84.5601 78.06C78.8901 74.18 83.0901 58.47 72.1802 48.94C71.9201 48.72 71.5702 48.62 71.2302 48.68C67.4902 49.35 63.8701 49.72 61.0101 51.11C60.0801 51.56 60.2402 52.96 61.2402 53.2C75.0002 56.47 67.8001 76.66 78.4701 85.18C81.0802 87.32 86.4001 90.2 90.7101 90.72C107.28 92.84 107.43 67.83 117.41 63.75C117.81 63.58 118.06 63.16 118.06 62.73C118.07 45.48 118.51 63.78 108.35 42.19H108.37Z" fill="#CD7F32"/>
<path d="M59.8301 107.2C59.3901 107.61 58.7101 107.61 58.2701 107.2C46.1501 95.78 29.5901 99.86 40.0201 84.57C43.9401 78.84 59.6301 83.1 69.1401 72.19C69.3601 71.93 69.4501 71.58 69.4001 71.25C68.6901 67.11 68.2601 63.58 66.9001 60.86C66.4501 59.97 65.1101 60.08 64.8301 61.04C64.3001 62.86 63.3501 64.58 62.1001 66.02C55.3601 73.82 40.4001 69.08 32.8901 78.48C29.5401 82.57 26.0901 89.84 27.6801 95.78C30.9801 107.92 50.5901 108.36 54.3001 117.37C54.4701 117.79 54.8601 118.08 55.3101 118.08C72.2301 118.08 54.7401 118.3 75.8801 108.37C82.8301 105.1 89.7501 101.67 90.7001 94.2C90.7801 93.59 90.3501 93.05 89.7501 92.96C87.5901 92.62 85.3301 91.86 82.9501 90.69C82.1801 90.31 81.2701 90.87 81.3201 91.72C81.7501 98.54 68.7401 98.87 59.8101 107.2H59.8301Z" fill="#CD7F32"/>
<path d="M10.8901 59.83C10.4801 59.39 10.4801 58.71 10.8901 58.27C22.5601 45.93 18.2501 29.62 33.5201 40.03C39.2001 43.91 35.0401 59.67 45.9001 69.15C46.1601 69.37 46.5101 69.46 46.8501 69.41C51.1901 68.66 54.5901 68.25 57.2401 66.91C58.1301 66.46 58.0101 65.12 57.0501 64.85C55.2301 64.32 53.5101 63.37 52.0701 62.12C44.3101 55.45 49.0001 40.42 39.6001 32.91C35.5301 29.58 28.2501 26.12 22.3101 27.71C10.1701 31.01 9.73007 50.61 0.720071 54.33C0.300071 54.5 0.0100712 54.89 0.0100712 55.35C7.11735e-05 72.6 -0.419929 54.38 9.72007 75.92C12.9901 82.88 16.4301 89.79 23.8901 90.74C24.4901 90.82 25.0401 90.39 25.1301 89.79C25.4801 87.63 26.2401 85.37 27.4101 82.98C27.7901 82.22 27.2301 81.3 26.3801 81.35C19.5801 81.75 19.1201 68.67 10.8901 59.84V59.83Z" fill="#CD7F32"/>
</svg>
