<svg width="52" height="52" viewBox="0 0 52 52" fill="none" xmlns="http://www.w3.org/2000/svg">
<path d="M26.0021 4.46027C31.4715 10.0221 39.059 7.89515 34.3779 14.7605C32.634 17.3103 25.5705 15.3682 21.4002 20.3973C21.8494 22.9338 22.0035 24.9067 23.2542 26.2322C23.787 18.6754 33.6249 22.3129 37.5133 17.4424C38.9886 15.6413 40.5079 12.4398 39.8077 9.82398C38.3148 4.34577 29.2784 4.27531 27.9705 0.00372162C19.8193 0.00372162 28.2171 -0.256097 18.5774 4.27972C15.3759 5.78578 12.1745 7.37552 12.0071 11.0086C13.3767 11.1451 14.8299 11.6603 16.4108 12.5807C14.8123 8.51167 21.7217 8.81113 25.9977 4.46027H26.0021Z" fill="#EAFFFD"/>
<path d="M47.7256 18.5786C46.2151 15.3727 44.6253 12.1756 40.9967 12.0083C40.8602 13.3779 40.3405 14.8399 39.4246 16.412C43.5024 14.8047 43.1853 21.7141 47.545 25.9989C42.0888 31.3582 44.1145 39.0735 37.2447 34.3747C34.717 32.644 36.6458 25.5717 31.608 21.397C29.3489 21.8153 27.1647 21.9431 25.7731 23.251C33.4444 23.7794 29.5779 33.5292 34.5629 37.5101C35.7123 38.4525 38.055 39.7208 39.953 39.9498C47.4041 40.9054 47.316 29.3941 51.9971 27.9717C51.9971 19.7852 52.2614 28.2271 47.7212 18.5786H47.7256Z" fill="#EAFFFD"/>
<path d="M26.0021 47.5417C20.6428 42.0943 12.9319 44.1156 17.6262 37.2414C19.3745 34.6873 26.4336 36.6425 30.6039 31.6091C30.1592 29.1034 29.9918 27.0777 28.75 25.7742C28.6663 26.972 28.1467 28.1522 27.3496 29.0725C24.3815 32.5074 17.7936 30.4201 14.4864 34.5596C13.0112 36.3607 11.4919 39.5622 12.1921 42.178C13.6849 47.6606 22.7257 47.7266 24.0292 51.9982C32.044 51.9982 23.9808 52.1611 33.4223 47.7222C36.6282 46.2118 39.8253 44.6264 39.9926 40.9934C38.6231 40.8568 37.1655 40.3416 35.5889 39.4212C37.1919 43.5035 30.3089 43.1644 26.0021 47.5417Z" fill="#EAFFFD"/>
<path d="M4.46357 26.0034C10.0254 20.534 7.89846 12.9464 14.7638 17.6275C17.296 19.3582 15.3848 26.4481 20.3962 30.6052C23.0472 30.1384 24.9188 29.9931 26.2311 28.7513C25.0333 28.6676 23.8575 28.1524 22.9327 27.3509C19.5154 24.4136 21.5808 17.7949 17.4413 14.4877C15.649 13.0212 12.4431 11.4976 9.82728 12.1978C4.34467 13.6906 4.27862 22.727 0.00262151 24.0305C0.00262151 32.195 -0.252793 23.8059 4.27862 33.4236C5.78909 36.6339 7.37882 39.8266 11.0075 39.9939C11.144 38.6244 11.668 37.1667 12.5796 35.5902C8.52378 37.18 8.7836 30.2529 4.45917 26.0034H4.46357Z" fill="#EAFFFD"/>
</svg>
