<svg width="96" height="119" viewBox="0 0 96 119" fill="none" xmlns="http://www.w3.org/2000/svg">
<path d="M3.1401 16.64H1.4701C0.850098 16.64 0.350098 16.14 0.350098 15.52V10.12C0.350098 9.5 0.850098 9 1.4701 9H14.7001C15.3201 9 15.8201 9.5 15.8201 10.12V15.52C15.8201 16.14 15.3201 16.64 14.7001 16.64H13.0301C12.4101 16.64 11.9101 17.14 11.9101 17.76V57.58C11.9101 58.2 11.4101 58.7 10.7901 58.7H5.3901C4.7701 58.7 4.2701 58.2 4.2701 57.58V17.76C4.2701 17.14 3.7701 16.64 3.1501 16.64H3.1401Z" fill="#008799"/>
<path d="M28.0703 1.06C32.0503 3.1 36.0403 4.14 40.0203 4.26C40.6503 4.28 41.1503 4.79 41.1303 5.42L41.0903 6.35001C41.0703 6.96001 40.5603 7.45 39.9503 7.43C36.0003 7.31 32.0103 6.28 28.0703 4.23C27.7503 4.06 27.3703 4.06 27.0503 4.23C23.1103 6.28 19.1203 7.32 15.1703 7.43C14.5603 7.45 14.0603 6.95001 14.0303 6.35001L13.9903 5.42C13.9703 4.79 14.4703 4.28 15.1003 4.26C19.0803 4.14 23.0703 3.1 27.0503 1.06C27.3703 0.900002 27.7503 0.900002 28.0603 1.06H28.0703ZM30.3103 58.71C29.6903 58.71 29.1903 58.21 29.1903 57.59V53.37H27.9503C27.9503 56.48 27.8903 58.71 26.2703 58.71H24.6503C22.0403 58.71 18.3703 55.48 18.3703 48.95V37.39C18.3703 30.86 22.0403 27.63 24.6503 27.63H28.0603C28.6803 27.63 29.1803 27.13 29.1803 26.51V26.08C29.1803 18.62 29.3703 17.26 27.5603 17.26C25.7503 17.26 25.9303 17.99 25.9403 24.48C25.9403 25.04 25.5303 25.52 24.9703 25.6L19.5703 26.35C18.9003 26.44 18.2903 25.92 18.2903 25.24V18.76C18.2903 12.23 21.9603 9 24.5703 9H30.5403C33.1503 9 36.8203 12.23 36.8203 18.76V57.59C36.8203 58.21 36.3203 58.71 35.7003 58.71H30.3003H30.3103ZM27.6903 50.44H28.0603C28.6803 50.44 29.1803 49.94 29.1803 49.32V38.51C29.1803 36.4 28.8103 35.9 27.6903 35.9C26.3203 35.9 26.0103 36.65 26.0103 40.19V46.16C26.0103 49.7 26.3203 50.45 27.6903 50.45V50.44Z" fill="#008799"/>
<path d="M39.3101 10.12C39.3101 9.5 39.8101 9 40.4301 9H50.8001C52.2901 9 52.4801 11.24 52.4801 14.34H53.7201V10.12C53.7201 9.5 54.2201 9 54.8401 9H62.2901C64.9001 9 68.5701 12.23 68.5701 18.76V57.59C68.5701 58.21 68.0701 58.71 67.4501 58.71H62.0501C61.4301 58.71 60.9301 58.21 60.9301 57.59V26.09C60.9301 18.57 61.1201 17.27 59.2501 17.27H58.8801C58.2601 17.27 57.7601 17.77 57.7601 18.39V57.59C57.7601 58.21 57.2601 58.71 56.6401 58.71H51.2401C50.6201 58.71 50.1201 58.21 50.1201 57.59V21.55C50.1201 18.01 49.8701 17.26 48.4401 17.26H48.0701C47.4501 17.26 46.9501 17.76 46.9501 18.38V57.58C46.9501 58.2 46.4501 58.7 45.8301 58.7H40.4301C39.8101 58.7 39.3101 58.2 39.3101 57.58V10.11V10.12Z" fill="#008799"/>
<path d="M78.4 8.98999H83.8C84.42 8.98999 84.92 9.48999 84.92 10.11V22.97C84.92 30.49 84.61 31.79 86.41 31.79C88.21 31.79 88.09 30.48 88.09 22.97V10.11C88.09 9.48999 88.59 8.98999 89.21 8.98999H94.61C95.23 8.98999 95.73 9.48999 95.73 10.11V30.3C95.73 35.62 93.31 38.72 91 39.7C90.59 39.87 90.32 40.28 90.32 40.72V57.57C90.32 58.19 89.82 58.69 89.2 58.69H83.8C83.18 58.69 82.68 58.19 82.68 57.57V40.81C82.68 40.35 82.4 39.95 81.98 39.78C79.72 38.86 77.27 35.7 77.27 30.3V10.11C77.27 9.48999 77.77 8.98999 78.39 8.98999H78.4Z" fill="#008799"/>
<path d="M17.8003 62.82C20.7403 62.82 24.8803 66.46 24.8803 73.82V107.88C24.8803 115.24 20.7503 118.88 17.8003 118.88H5.19031C4.57031 118.88 4.07031 118.38 4.07031 117.76V63.94C4.07031 63.32 4.57031 62.82 5.19031 62.82H17.8003ZM14.3703 109.56C16.4703 109.56 16.2603 108.09 16.2603 99.61V82.09C16.2603 73.61 16.4703 72.14 14.3703 72.14H13.8103C13.1903 72.14 12.6903 72.64 12.6903 73.26V108.44C12.6903 109.06 13.1903 109.56 13.8103 109.56H14.3703Z" fill="#008799"/>
<path d="M28.8102 62.82H35.1802C35.8002 62.82 36.3002 63.32 36.3002 63.94V99.61C36.3002 108.09 35.9502 109.56 37.9802 109.56C40.0102 109.56 39.8702 108.09 39.8702 99.61V63.94C39.8702 63.32 40.3702 62.82 40.9902 62.82H47.3602C47.9802 62.82 48.4802 63.32 48.4802 63.94V107.88C48.4802 115.24 44.3502 118.88 41.4002 118.88H34.5302C31.6602 118.88 27.6602 115.24 27.6602 107.88V63.94C27.6602 63.32 28.1602 62.82 28.7802 62.82H28.8102Z" fill="#008799"/>
<path d="M63.2103 62.82H65.0303C67.9703 62.82 72.1103 66.46 72.1103 73.82V117.76C72.1103 118.38 71.6103 118.88 70.9903 118.88H64.6203C64.0003 118.88 63.5003 118.38 63.5003 117.76V82.09C63.5003 73.61 63.7103 72.14 61.6103 72.14H61.0503C60.4303 72.14 59.9303 72.64 59.9303 73.26V117.76C59.9303 118.38 59.4303 118.88 58.8103 118.88H52.4403C51.8203 118.88 51.3203 118.38 51.3203 117.76V63.94C51.3203 63.32 51.8203 62.82 52.4403 62.82H63.2303H63.2103Z" fill="#008799"/>
<path d="M74.9204 107.88V73.82C74.9204 66.46 78.8404 62.82 81.7904 62.82H88.7304C91.6004 62.82 95.7404 66.46 95.7404 73.82V76.83C95.7404 77.45 95.2404 77.95 94.6204 77.95H88.2404C87.6204 77.95 87.1204 77.44 87.1204 76.83C87.0904 72.95 86.8404 72.07 85.2304 72.07C83.1304 72.07 83.5504 73.68 83.5504 82.09V99.61C83.5504 108.02 83.1304 109.63 85.2304 109.63C87.1204 109.63 87.1204 108.16 87.1204 101.15V98.42C87.1204 96.32 90.6904 96.53 93.1504 96.53V95.13H86.6904C86.0004 95.13 85.4704 94.51 85.5804 93.83L86.4204 88.58C86.5104 88.04 86.9804 87.63 87.5304 87.63H94.6304C95.2504 87.63 95.7504 88.13 95.7504 88.75V107.88C95.7504 115.24 91.6204 118.88 88.7404 118.88H81.8004C78.8604 118.88 74.9304 115.24 74.9304 107.88H74.9204Z" fill="#008799"/>
</svg>
